<svg xmlns="http://www.w3.org/2000/svg" xmlns:xlink="http://www.w3.org/1999/xlink" id="Layer_1" x="0" y="0" enable-background="new 16 -16 38 38" version="1.1" viewBox="16 -16 38 38" xml:space="preserve"><style type="text/css">.st0{fill:url(#SVGID_1_)}.st1{fill:url(#SVGID_2_)}</style><g><linearGradient id="SVGID_1_" x1="31.328" x2="31.504" y1="5.76" y2="5.412" gradientTransform="matrix(31.3 0 0 -27.6 -946.9997 149.6)" gradientUnits="userSpaceOnUse"><stop offset="0" stop-color="#FFF" stop-opacity="0"/><stop offset=".2" stop-color="#FFF" stop-opacity=".5"/><stop offset="1" stop-color="#FFF"/></linearGradient><path d="M34.9-9c1.6,0,3.1,0.3,4.6,0.9c1.5,0.6,2.8,1.5,4,2.6c1.1,1.1,2,2.5,2.7,4C46.7,0,47,1.4,47,3s-0.3,3-0.8,4.5 c0,0.1-0.1,0.2-0.2,0.3C45.9,7.9,45.9,8,45.8,8c-0.3,0.3-0.6,0.4-1,0.4c-0.4,0-0.8-0.1-1-0.4c-0.4-0.4-0.5-0.9-0.3-1.6 c0.6-1.3,0.9-2.6,0.9-4.1s-0.2-2.8-0.7-4.2c-0.5-1.4-1.3-2.6-2.4-3.7c-1.3-1.3-2.7-2.1-4.4-2.6c-1.6-0.5-3.4-0.6-5-0.3 c-1.7,0.3-3.3,1.1-4.7,2.1c1.1-0.9,2.3-1.6,3.7-2.1C32.2-8.7,33.5-9,34.9-9L34.9-9z" class="st0"/><linearGradient id="SVGID_2_" x1="31.328" x2="31.504" y1="5.76" y2="5.412" gradientTransform="matrix(-31.3 0 0 27.6 1016.9998 -143.6)" gradientUnits="userSpaceOnUse"><stop offset="0" stop-color="#FFF" stop-opacity="0"/><stop offset=".2" stop-color="#FFF" stop-opacity=".5"/><stop offset="1" stop-color="#FFF"/></linearGradient><path d="M35.1,15c-1.6,0-3.1-0.3-4.6-0.9c-1.5-0.6-2.8-1.5-4-2.6s-2-2.5-2.7-4C23.3,6,23,4.6,23,3s0.3-3,0.8-4.5 c0-0.1,0.1-0.2,0.2-0.3C24.1-1.9,24.1-2,24.2-2c0.3-0.3,0.6-0.4,1-0.4s0.8,0.1,1,0.4c0.4,0.4,0.5,0.9,0.3,1.6 c-0.6,1.3-0.9,2.6-0.9,4.1c-0.1,1.4,0.2,2.8,0.7,4.2c0.5,1.4,1.3,2.6,2.4,3.7c1.3,1.3,2.7,2.1,4.4,2.6c1.6,0.5,3.4,0.6,5,0.3 c1.7-0.3,3.3-1.1,4.7-2.1c-1.1,0.9-2.3,1.6-3.7,2.1C37.8,14.7,36.5,15,35.1,15L35.1,15z" class="st1"/></g></svg>